<svg width="16" height="17" viewBox="0 0 16 17" fill="none" xmlns="http://www.w3.org/2000/svg">
<path d="M15.5 8.02736V15.25C15.5 15.5815 15.3683 15.8995 15.1339 16.1339C14.8995 16.3683 14.5815 16.5 14.25 16.5H11.125C10.7935 16.5 10.4755 16.3683 10.2411 16.1339C10.0067 15.8995 9.875 15.5815 9.875 15.25V12.125C9.875 11.9593 9.80915 11.8003 9.69194 11.6831C9.57473 11.5659 9.41576 11.5 9.25 11.5H6.75C6.58424 11.5 6.42527 11.5659 6.30806 11.6831C6.19085 11.8003 6.125 11.9593 6.125 12.125V15.25C6.125 15.5815 5.9933 15.8995 5.75888 16.1339C5.52446 16.3683 5.20652 16.5 4.875 16.5H1.75C1.41848 16.5 1.10054 16.3683 0.866116 16.1339C0.631696 15.8995 0.5 15.5815 0.5 15.25V8.02736C0.499974 7.85436 0.535859 7.68323 0.605384 7.52482C0.674909 7.3664 0.776561 7.22414 0.903906 7.10705L7.15391 1.21017L7.1625 1.20158C7.39261 0.992306 7.69248 0.876343 8.00352 0.876343C8.31455 0.876343 8.61442 0.992306 8.84453 1.20158C8.8472 1.20463 8.85007 1.2075 8.85312 1.21017L15.1031 7.10705C15.2292 7.22476 15.3295 7.3673 15.3978 7.52568C15.4661 7.68407 15.5009 7.85488 15.5 8.02736Z" fill="white"/>
</svg>
